<svg width="94" height="94" viewBox="0 0 94 94" fill="none" xmlns="http://www.w3.org/2000/svg">
<g clip-path="url(#clip0_132_8)">
<path d="M27.6256 57.7078C26.0633 58.6098 24.4391 58.8349 22.753 58.3831C21.0669 57.9313 19.7728 56.9243 18.8708 55.362C17.9688 53.7996 17.7437 52.1754 18.1955 50.4893C18.6473 48.8032 19.6543 47.5091 21.2166 46.6071C22.779 45.7051 24.4032 45.48 26.0893 45.9318C27.7754 46.3836 29.0694 47.3907 29.9715 48.953C30.8735 50.5153 31.0986 52.1395 30.6468 53.8256C30.195 55.5117 29.1879 56.8058 27.6256 57.7078ZM32.9817 40.6368C31.4194 41.5388 29.7952 41.764 28.1091 41.3122C26.423 40.8604 25.1289 39.8533 24.2269 38.291C23.3249 36.7287 23.0998 35.1045 23.5516 33.4184C24.0034 31.7322 25.0104 30.4382 26.5727 29.5362C28.1351 28.6342 29.7593 28.4091 31.4454 28.8609C33.1315 29.3127 34.4255 30.3197 35.3275 31.882C36.2296 33.4443 36.4547 35.0686 36.0029 36.7547C35.5511 38.4408 34.544 39.7348 32.9817 40.6368ZM48.3993 31.7355C46.837 32.6375 45.2128 32.8626 43.5266 32.4108C41.8405 31.959 40.5465 30.952 39.6445 29.3897C38.7425 27.8273 38.5174 26.2031 38.9692 24.517C39.4209 22.8309 40.428 21.5368 41.9903 20.6348C43.5526 19.7328 45.1768 19.5077 46.863 19.9595C48.5491 20.4113 49.8431 21.4184 50.7451 22.9807C51.6471 24.543 51.8722 26.1672 51.4204 27.8533C50.9687 29.5394 49.9616 30.8335 48.3993 31.7355V31.7355ZM65.8612 35.6325C64.2989 36.5345 62.6747 36.7596 60.9886 36.3078C59.3025 35.856 58.0084 34.8489 57.1064 33.2866C56.2044 31.7243 55.9793 30.1001 56.4311 28.414C56.8829 26.7279 57.8899 25.4338 59.4522 24.5318C61.0146 23.6298 62.6388 23.4047 64.3249 23.8565C66.011 24.3083 67.3051 25.3153 68.2071 26.8776C69.1091 28.44 69.3342 30.0642 68.8824 31.7503C68.4306 33.4364 67.4235 34.7305 65.8612 35.6325ZM48.1442 79.5745C46.4174 80.5715 44.6251 80.7428 42.7673 80.0887C40.9096 79.4345 39.4703 78.2235 38.4496 76.4556C37.4527 74.7288 37.0927 72.8947 37.3696 70.9532C37.6466 69.0117 38.0251 67.0801 38.5053 65.1583C38.8876 63.7316 39.1786 62.2891 39.3782 60.8308C39.5778 59.3725 39.7185 57.9072 39.8002 56.4347C39.9481 53.9373 40.3111 51.4802 40.8892 49.0634C41.4672 46.6465 42.8252 44.8209 44.9631 43.5866C47.101 42.3523 49.3713 42.0831 51.774 42.779C54.1766 43.4749 56.5082 44.4038 58.7686 45.5655C60.0847 46.2309 61.4079 46.8374 62.7382 47.385C64.0685 47.9326 65.447 48.3975 66.8737 48.7798C68.7781 49.3249 70.6402 49.9628 72.46 50.6937C74.2799 51.4246 75.6883 52.6535 76.6852 54.3802C77.7059 56.1481 78.0351 58 77.6727 59.936C77.3104 61.872 76.2658 63.3385 74.5391 64.3354C72.3189 65.6172 70.0125 66.7021 67.6199 67.5901C65.2272 68.4782 62.9208 69.5631 60.7007 70.8449C58.4806 72.1267 56.3878 73.5816 54.4224 75.2097C52.4571 76.8378 50.3643 78.2927 48.1442 79.5745V79.5745Z" fill="#FFB195"/>
</g>
<defs>
<clipPath id="clip0_132_8">
<rect width="68.3623" height="68.3623" fill="white" transform="translate(0.229095 34.4673) rotate(-30)"/>
</clipPath>
</defs>
</svg>
