<svg width="223" height="48" viewBox="0 0 223 48" fill="none" xmlns="http://www.w3.org/2000/svg">
<path d="M45.0227 43V19.7273H54.2045C55.9697 19.7273 57.4735 20.0644 58.7159 20.7386C59.9583 21.4053 60.9053 22.3333 61.5568 23.5227C62.2159 24.7045 62.5455 26.0682 62.5455 27.6136C62.5455 29.1591 62.2121 30.5227 61.5455 31.7045C60.8788 32.8864 59.9129 33.8068 58.6477 34.4659C57.3902 35.125 55.8674 35.4545 54.0795 35.4545H48.2273V31.5114H53.2841C54.2311 31.5114 55.0114 31.3485 55.625 31.0227C56.2462 30.6894 56.7083 30.2311 57.0114 29.6477C57.322 29.0568 57.4773 28.3788 57.4773 27.6136C57.4773 26.8409 57.322 26.1667 57.0114 25.5909C56.7083 25.0076 56.2462 24.5568 55.625 24.2386C55.0038 23.9129 54.2159 23.75 53.2614 23.75H49.9432V43H45.0227ZM73.3239 43.3409C71.5284 43.3409 69.983 42.9773 68.6875 42.25C67.3996 41.5152 66.4072 40.4773 65.7102 39.1364C65.0133 37.7879 64.6648 36.1932 64.6648 34.3523C64.6648 32.5568 65.0133 30.9811 65.7102 29.625C66.4072 28.2689 67.3883 27.2121 68.6534 26.4545C69.9261 25.697 71.4186 25.3182 73.1307 25.3182C74.2822 25.3182 75.3542 25.5038 76.3466 25.875C77.3466 26.2386 78.2178 26.7879 78.9602 27.5227C79.7102 28.2576 80.2936 29.1818 80.7102 30.2955C81.1269 31.4015 81.3352 32.697 81.3352 34.1818V35.5114H66.5966V32.5114H76.7784C76.7784 31.8144 76.6269 31.197 76.3239 30.6591C76.0208 30.1212 75.6004 29.7008 75.0625 29.3977C74.5322 29.0871 73.9148 28.9318 73.2102 28.9318C72.4754 28.9318 71.8239 29.1023 71.2557 29.4432C70.6951 29.7765 70.2557 30.2273 69.9375 30.7955C69.6193 31.3561 69.4564 31.9811 69.4489 32.6705V35.5227C69.4489 36.3864 69.608 37.1326 69.9261 37.7614C70.2519 38.3902 70.7102 38.875 71.3011 39.2159C71.892 39.5568 72.5928 39.7273 73.4034 39.7273C73.9413 39.7273 74.4337 39.6515 74.8807 39.5C75.3277 39.3485 75.7102 39.1212 76.0284 38.8182C76.3466 38.5152 76.589 38.1439 76.7557 37.7045L81.233 38C81.0057 39.0758 80.5398 40.0152 79.8352 40.8182C79.1383 41.6136 78.2367 42.2348 77.1307 42.6818C76.0322 43.1212 74.7633 43.3409 73.3239 43.3409ZM93.7784 25.5455V29.1818H83.267V25.5455H93.7784ZM85.6534 21.3636H90.4943V37.6364C90.4943 38.0833 90.5625 38.4318 90.6989 38.6818C90.8352 38.9242 91.0246 39.0947 91.267 39.1932C91.517 39.2917 91.8049 39.3409 92.1307 39.3409C92.358 39.3409 92.5852 39.322 92.8125 39.2841C93.0398 39.2386 93.214 39.2045 93.3352 39.1818L94.0966 42.7841C93.8542 42.8598 93.5133 42.947 93.0739 43.0455C92.6345 43.1515 92.1004 43.2159 91.4716 43.2386C90.3049 43.2841 89.2822 43.1288 88.4034 42.7727C87.5322 42.4167 86.8542 41.8636 86.3693 41.1136C85.8845 40.3636 85.6458 39.4167 85.6534 38.2727V21.3636ZM97.3977 43V19.7273H102.318V29.3295H112.307V19.7273H117.216V43H112.307V33.3864H102.318V43H97.3977ZM129.068 43.3409C127.303 43.3409 125.777 42.9659 124.489 42.2159C123.208 41.4583 122.22 40.4053 121.523 39.0568C120.826 37.7008 120.477 36.1288 120.477 34.3409C120.477 32.5379 120.826 30.9621 121.523 29.6136C122.22 28.2576 123.208 27.2045 124.489 26.4545C125.777 25.697 127.303 25.3182 129.068 25.3182C130.833 25.3182 132.356 25.697 133.636 26.4545C134.924 27.2045 135.917 28.2576 136.614 29.6136C137.311 30.9621 137.659 32.5379 137.659 34.3409C137.659 36.1288 137.311 37.7008 136.614 39.0568C135.917 40.4053 134.924 41.4583 133.636 42.2159C132.356 42.9659 130.833 43.3409 129.068 43.3409ZM129.091 39.5909C129.894 39.5909 130.564 39.3636 131.102 38.9091C131.64 38.447 132.045 37.8182 132.318 37.0227C132.598 36.2273 132.739 35.322 132.739 34.3068C132.739 33.2917 132.598 32.3864 132.318 31.5909C132.045 30.7955 131.64 30.1667 131.102 29.7045C130.564 29.2424 129.894 29.0114 129.091 29.0114C128.28 29.0114 127.598 29.2424 127.045 29.7045C126.5 30.1667 126.087 30.7955 125.807 31.5909C125.534 32.3864 125.398 33.2917 125.398 34.3068C125.398 35.322 125.534 36.2273 125.807 37.0227C126.087 37.8182 126.5 38.447 127.045 38.9091C127.598 39.3636 128.28 39.5909 129.091 39.5909ZM152 35.5682V25.5455H156.841V43H152.193V39.8295H152.011C151.617 40.8523 150.962 41.6742 150.045 42.2955C149.136 42.9167 148.027 43.2273 146.716 43.2273C145.549 43.2273 144.523 42.9621 143.636 42.4318C142.75 41.9015 142.057 41.1477 141.557 40.1705C141.064 39.1932 140.814 38.0227 140.807 36.6591V25.5455H145.648V35.7955C145.655 36.8258 145.932 37.6402 146.477 38.2386C147.023 38.8371 147.754 39.1364 148.67 39.1364C149.254 39.1364 149.799 39.0038 150.307 38.7386C150.814 38.4659 151.223 38.0644 151.534 37.5341C151.852 37.0038 152.008 36.3485 152 35.5682ZM175.236 30.5227L170.804 30.7955C170.728 30.4167 170.565 30.0758 170.315 29.7727C170.065 29.4621 169.736 29.2159 169.327 29.0341C168.925 28.8447 168.444 28.75 167.884 28.75C167.134 28.75 166.501 28.9091 165.986 29.2273C165.471 29.5379 165.213 29.9545 165.213 30.4773C165.213 30.8939 165.38 31.2462 165.713 31.5341C166.046 31.822 166.618 32.053 167.429 32.2273L170.588 32.8636C172.285 33.2121 173.55 33.7727 174.384 34.5455C175.217 35.3182 175.634 36.3333 175.634 37.5909C175.634 38.7348 175.296 39.7386 174.622 40.6023C173.955 41.4659 173.039 42.1402 171.872 42.625C170.713 43.1023 169.376 43.3409 167.861 43.3409C165.55 43.3409 163.709 42.8598 162.338 41.8977C160.974 40.928 160.175 39.6098 159.94 37.9432L164.702 37.6932C164.846 38.3977 165.194 38.9356 165.747 39.3068C166.3 39.6705 167.009 39.8523 167.872 39.8523C168.721 39.8523 169.402 39.6894 169.918 39.3636C170.44 39.0303 170.705 38.6023 170.713 38.0795C170.705 37.6402 170.52 37.2803 170.156 37C169.793 36.7121 169.232 36.4924 168.474 36.3409L165.452 35.7386C163.747 35.3977 162.478 34.8068 161.645 33.9659C160.819 33.125 160.406 32.053 160.406 30.75C160.406 29.6288 160.709 28.6629 161.315 27.8523C161.929 27.0417 162.789 26.4167 163.895 25.9773C165.009 25.5379 166.312 25.3182 167.804 25.3182C170.009 25.3182 171.743 25.7841 173.009 26.7159C174.281 27.6477 175.024 28.9167 175.236 30.5227ZM186.636 43.3409C184.841 43.3409 183.295 42.9773 182 42.25C180.712 41.5152 179.72 40.4773 179.023 39.1364C178.326 37.7879 177.977 36.1932 177.977 34.3523C177.977 32.5568 178.326 30.9811 179.023 29.625C179.72 28.2689 180.701 27.2121 181.966 26.4545C183.239 25.697 184.731 25.3182 186.443 25.3182C187.595 25.3182 188.667 25.5038 189.659 25.875C190.659 26.2386 191.53 26.7879 192.273 27.5227C193.023 28.2576 193.606 29.1818 194.023 30.2955C194.439 31.4015 194.648 32.697 194.648 34.1818V35.5114H179.909V32.5114H190.091C190.091 31.8144 189.939 31.197 189.636 30.6591C189.333 30.1212 188.913 29.7008 188.375 29.3977C187.845 29.0871 187.227 28.9318 186.523 28.9318C185.788 28.9318 185.136 29.1023 184.568 29.4432C184.008 29.7765 183.568 30.2273 183.25 30.7955C182.932 31.3561 182.769 31.9811 182.761 32.6705V35.5227C182.761 36.3864 182.92 37.1326 183.239 37.7614C183.564 38.3902 184.023 38.875 184.614 39.2159C185.205 39.5568 185.905 39.7273 186.716 39.7273C187.254 39.7273 187.746 39.6515 188.193 39.5C188.64 39.3485 189.023 39.1212 189.341 38.8182C189.659 38.5152 189.902 38.1439 190.068 37.7045L194.545 38C194.318 39.0758 193.852 40.0152 193.148 40.8182C192.451 41.6136 191.549 42.2348 190.443 42.6818C189.345 43.1212 188.076 43.3409 186.636 43.3409Z" fill="black"/>
<path d="M10 44V23.9L9.3 23.2C8.93334 22.8333 8.675 22.45 8.525 22.05C8.375 21.65 8.3 21.2167 8.3 20.75C8.3 20.2833 8.375 19.8417 8.525 19.425C8.675 19.0083 8.93334 18.6167 9.3 18.25L15.7 11.8H24.7L32.5 4L36.25 7.75C37.55 9.05 38.525 10.5417 39.175 12.225C39.825 13.9083 40.1667 15.6 40.2 17.3C40.1667 19 39.825 20.6917 39.175 22.375C38.525 24.0583 37.55 25.55 36.25 26.85L32 31.1V44H10ZM13 41H29V29.85L34.1 24.75C35.1333 23.7167 35.9083 22.5583 36.425 21.275C36.9417 19.9917 37.2 18.6667 37.2 17.3C37.2 15.9333 36.9417 14.6167 36.425 13.35C35.9083 12.0833 35.1333 10.9333 34.1 9.9L32.5 8.25L25.95 14.8H16.95L15.3 16.45L19 20.15C19.9333 21.0833 20.6333 22.125 21.1 23.275C21.5667 24.425 21.8 25.6167 21.8 26.85C21.8 28.0167 21.6 29.15 21.2 30.25C20.8 31.35 20.1833 32.35 19.35 33.25L13 26.9V41Z" fill="#1E1E1E"/>
</svg>
